<?xml version="1.0" standalone="no"?>
<!DOCTYPE svg PUBLIC "-//W3C//DTD SVG 20010904//EN"
 "http://www.w3.org/TR/2001/REC-SVG-20010904/DTD/svg10.dtd">
<svg version="1.0" xmlns="http://www.w3.org/2000/svg"
 width="512.000000pt" height="512.000000pt" viewBox="0 0 512.000000 512.000000"
 preserveAspectRatio="xMidYMid meet">
<metadata>
Created by potrace 1.11, written by Peter Selinger 2001-2013
</metadata>
<g transform="translate(0.000000,512.000000) scale(0.100000,-0.100000)"
fill="#000000" stroke="none">
<path d="M0 2560 l0 -2560 2560 0 2560 0 0 2560 0 2560 -2560 0 -2560 0 0
-2560z m3571 2217 c24 -13 58 -43 74 -66 29 -42 30 -46 33 -179 3 -128 2 -140
-21 -182 -13 -25 -43 -58 -66 -75 -36 -25 -54 -30 -117 -33 l-74 -4 0 -657 0
-657 516 -829 c284 -457 529 -856 545 -887 67 -132 78 -332 27 -470 -76 -203
-243 -356 -439 -403 -95 -22 -2882 -22 -2977 0 -170 40 -326 166 -409 328 -81
162 -83 389 -4 545 16 31 261 430 545 887 l516 830 0 656 0 657 -74 4 c-63 3
-81 8 -117 33 -23 17 -53 50 -66 75 -23 42 -24 54 -21 182 3 133 4 137 33 179
17 23 50 53 74 66 l44 23 967 0 967 0 44 -23z"/>
<path d="M2280 3513 c-1 -562 -4 -736 -14 -763 -10 -28 -197 -337 -433 -712
l-23 -38 749 0 749 0 -222 358 c-122 197 -228 373 -234 391 -9 25 -12 230 -12
762 l0 729 -280 0 -280 0 0 -727z"/>
</g>
</svg>
